<?xml version="1.0" encoding="UTF-8"?>
<svg xmlns="http://www.w3.org/2000/svg" xmlns:xlink="http://www.w3.org/1999/xlink" width="150pt" height="150pt" viewBox="0 0 150 150" version="1.1">
<g id="surface1">
<path style=" stroke:none;fill-rule:nonzero;fill:rgb(0%,0%,0%);fill-opacity:1;" d="M 8.789062 75 C 8.789062 38.492188 38.492188 8.789062 75 8.789062 C 88.730469 8.789062 101.824219 12.953125 112.851562 20.679688 L 104.332031 20.679688 C 101.90625 20.679688 99.9375 22.648438 99.9375 25.074219 C 99.9375 27.5 101.90625 29.46875 104.332031 29.46875 L 124.925781 29.46875 C 127.351562 29.46875 129.320312 27.5 129.320312 25.074219 L 129.320312 4.480469 C 129.320312 2.054688 127.351562 0.0859375 124.925781 0.0859375 C 122.5 0.0859375 120.53125 2.054688 120.53125 4.480469 L 120.53125 15.421875 C 107.515625 5.417969 91.671875 0 75 0 C 54.96875 0 36.132812 7.800781 21.964844 21.964844 C 7.800781 36.132812 0 54.96875 0 75 C 0 88.160156 3.476562 101.128906 10.058594 112.5 C 10.871094 113.90625 12.347656 114.695312 13.867188 114.695312 C 14.613281 114.695312 15.371094 114.503906 16.0625 114.101562 C 18.164062 112.886719 18.878906 110.199219 17.664062 108.097656 C 11.859375 98.0625 8.789062 86.617188 8.789062 75 Z M 8.789062 75 "/>
<path style=" stroke:none;fill-rule:nonzero;fill:rgb(0%,0%,0%);fill-opacity:1;" d="M 139.941406 37.5 C 138.726562 35.398438 136.039062 34.683594 133.9375 35.898438 C 131.835938 37.113281 131.121094 39.800781 132.335938 41.902344 C 138.140625 51.9375 141.210938 63.382812 141.210938 75 C 141.210938 111.507812 111.507812 141.210938 75 141.210938 C 61.269531 141.210938 48.179688 137.046875 37.15625 129.320312 L 45.667969 129.320312 C 48.09375 129.320312 50.0625 127.351562 50.0625 124.925781 C 50.0625 122.5 48.09375 120.53125 45.667969 120.53125 L 25.074219 120.53125 C 22.648438 120.53125 20.679688 122.5 20.679688 124.925781 L 20.679688 145.519531 C 20.679688 147.945312 22.648438 149.914062 25.074219 149.914062 C 27.5 149.914062 29.46875 147.945312 29.46875 145.519531 L 29.46875 134.570312 C 42.484375 144.574219 58.324219 150 75 150 C 95.03125 150 113.867188 142.199219 128.03125 128.035156 C 142.199219 113.867188 150 95.035156 150 75 C 150 61.839844 146.523438 48.871094 139.941406 37.5 Z M 139.941406 37.5 "/>
<path style=" stroke:none;fill-rule:nonzero;fill:rgb(0%,0%,0%);fill-opacity:1;" d="M 114.085938 66.171875 C 114.386719 65.046875 114.230469 63.84375 113.648438 62.835938 L 104.859375 47.613281 C 104.273438 46.605469 103.316406 45.867188 102.1875 45.566406 C 101.0625 45.265625 99.863281 45.421875 98.855469 46.003906 L 93.851562 48.894531 C 92.074219 47.601562 90.179688 46.503906 88.183594 45.609375 L 88.183594 39.84375 C 88.183594 37.417969 86.214844 35.449219 83.789062 35.449219 L 66.210938 35.449219 C 63.785156 35.449219 61.816406 37.417969 61.816406 39.84375 L 61.816406 45.609375 C 59.820312 46.503906 57.925781 47.601562 56.148438 48.894531 L 51.144531 46.003906 C 50.136719 45.421875 48.933594 45.261719 47.8125 45.566406 C 46.683594 45.867188 45.726562 46.601562 45.140625 47.613281 L 36.351562 62.835938 C 35.769531 63.84375 35.613281 65.046875 35.914062 66.171875 C 36.214844 67.296875 36.953125 68.257812 37.960938 68.839844 L 42.941406 71.714844 C 42.828125 72.804688 42.773438 73.902344 42.773438 75 C 42.773438 76.097656 42.828125 77.195312 42.941406 78.285156 L 37.960938 81.160156 C 36.953125 81.742188 36.214844 82.703125 35.914062 83.828125 C 35.613281 84.953125 35.769531 86.152344 36.351562 87.164062 L 45.140625 102.386719 C 45.726562 103.394531 46.683594 104.132812 47.8125 104.433594 C 48.9375 104.734375 50.136719 104.578125 51.144531 103.996094 L 56.148438 101.105469 C 57.925781 102.398438 59.820312 103.496094 61.816406 104.390625 L 61.816406 110.15625 C 61.816406 112.582031 63.785156 114.550781 66.210938 114.550781 L 83.789062 114.550781 C 86.214844 114.550781 88.183594 112.582031 88.183594 110.15625 L 88.183594 104.390625 C 90.179688 103.496094 92.074219 102.398438 93.851562 101.105469 L 98.855469 103.996094 C 99.863281 104.578125 101.0625 104.734375 102.1875 104.433594 C 103.316406 104.132812 104.273438 103.398438 104.859375 102.386719 L 113.648438 87.164062 C 114.230469 86.15625 114.386719 84.953125 114.085938 83.828125 C 113.785156 82.703125 113.046875 81.742188 112.039062 81.160156 L 107.058594 78.289062 C 107.171875 77.195312 107.226562 76.097656 107.226562 75 C 107.226562 73.902344 107.171875 72.804688 107.058594 71.714844 L 112.039062 68.839844 C 113.046875 68.257812 113.785156 67.296875 114.085938 66.171875 Z M 97.964844 70.285156 C 98.277344 71.828125 98.4375 73.414062 98.4375 75 C 98.4375 76.585938 98.277344 78.171875 97.964844 79.714844 C 97.585938 81.570312 98.433594 83.457031 100.070312 84.402344 L 103.835938 86.574219 L 99.441406 94.1875 L 95.644531 91.992188 C 94.007812 91.046875 91.945312 91.257812 90.53125 92.511719 C 88.132812 94.640625 85.398438 96.226562 82.402344 97.222656 C 80.605469 97.820312 79.394531 99.5 79.394531 101.394531 L 79.394531 105.761719 L 70.605469 105.761719 L 70.605469 101.394531 C 70.605469 99.5 69.394531 97.820312 67.597656 97.222656 C 64.601562 96.226562 61.863281 94.640625 59.46875 92.511719 C 58.054688 91.257812 55.992188 91.046875 54.355469 91.992188 L 50.554688 94.1875 L 46.160156 86.574219 L 49.929688 84.402344 C 51.566406 83.457031 52.414062 81.570312 52.035156 79.714844 C 51.722656 78.171875 51.5625 76.585938 51.5625 75 C 51.5625 73.414062 51.722656 71.828125 52.035156 70.285156 C 52.414062 68.433594 51.566406 66.542969 49.929688 65.597656 L 46.164062 63.425781 L 50.558594 55.8125 L 54.355469 58.007812 C 55.992188 58.953125 58.054688 58.742188 59.46875 57.488281 C 61.867188 55.359375 64.601562 53.773438 67.601562 52.777344 C 69.394531 52.179688 70.605469 50.5 70.605469 48.605469 L 70.605469 44.238281 L 79.394531 44.238281 L 79.394531 48.605469 C 79.394531 50.5 80.605469 52.179688 82.402344 52.777344 C 85.398438 53.773438 88.136719 55.359375 90.53125 57.488281 C 91.945312 58.742188 94.007812 58.953125 95.644531 58.007812 L 99.445312 55.8125 L 103.839844 63.425781 L 100.070312 65.597656 C 98.433594 66.542969 97.585938 68.433594 97.964844 70.285156 Z M 97.964844 70.285156 "/>
<path style=" stroke:none;fill-rule:nonzero;fill:rgb(0%,0%,0%);fill-opacity:1;" d="M 75 58.886719 C 66.113281 58.886719 58.886719 66.113281 58.886719 75 C 58.886719 83.886719 66.113281 91.113281 75 91.113281 C 83.886719 91.113281 91.113281 83.886719 91.113281 75 C 91.113281 66.113281 83.886719 58.886719 75 58.886719 Z M 75 82.324219 C 70.960938 82.324219 67.675781 79.039062 67.675781 75 C 67.675781 70.960938 70.960938 67.675781 75 67.675781 C 79.039062 67.675781 82.324219 70.960938 82.324219 75 C 82.324219 79.039062 79.039062 82.324219 75 82.324219 Z M 75 82.324219 "/>
</g>
</svg>
